# xmcd CD database file
# Copyright (C) 1993-1998 Ti Kan
#
# Track frame offsets:
#  150
#  8275
#  14505
#  25602
#  31330
#  43453
#  57175
#  67137
#  77351
#  88290
#  100538
#  110174
#  122640
#  130565
#  137580
#  145521
#  155117
#  168327
#  179276
#  191115
#
# Disc length: 2619 seconds
#
# Revision: 1
# Processed by: cddbd v1.4b41PL1 Copyright (c) Steve Scherf et al.
# Submitted via: KiC 2.1 - (C) 1996-1998 Alwin Hoogerdijk
#
DISCID=060a3914
DTITLE=Benny and Jerry Thomasson - The Weiser Reunion
DYEAR=1900
DGENRE=
TTITLE0=Cripple Creek
TTITLE1=Salt River
TTITLE2=Apple Blossom
TTITLE3=Liverpool Hornpipe
TTITLE4=Paddy on the Turnpike and Snowbird in the Ashes
TTITLE5=Sally Johnson
TTITLE6=Draggin' the Bow
TTITLE7=Leather Britches
TTITLE8=Waggoner
TTITLE9=Billy in the Lowground
TTITLE10=Don't Let the Deal Go Down
TTITLE11=That's A-Plenty
TTITLE12=Kansas City Kitty
TTITLE13=Jack of Diamonds
TTITLE14=Grey Eagle
TTITLE15=Soppin' the Gravy
TTITLE16=Cotton Patch Rag
TTITLE17=Hotfoot
TTITLE18=Durang's Hornpipe
TTITLE19=Twinkle Little Star
EXTD=
EXTT0=
EXTT1=
EXTT2=
EXTT3=
EXTT4=
EXTT5=
EXTT6=
EXTT7=
EXTT8=
EXTT9=
EXTT10=
EXTT11=
EXTT12=
EXTT13=
EXTT14=
EXTT15=
EXTT16=
EXTT17=
EXTT18=
EXTT19=
PLAYORDER=
